<svg width="24" height="24" viewBox="0 0 24 24" fill="none" xmlns="http://www.w3.org/2000/svg">
<path d="M2.57227 8.67716L11.7043 13.4266C11.7959 13.4742 11.8976 13.4991 12.0008 13.4991C12.1041 13.4991 12.2058 13.4742 12.2974 13.4266L21.4294 8.67801V16.928C21.4295 17.6396 21.1572 18.3242 20.6685 18.8414C20.1799 19.3586 19.5118 19.6692 18.8014 19.7094L18.6437 19.7137H5.35798C4.64643 19.7138 3.96184 19.4415 3.44464 18.9529C2.92744 18.4642 2.61684 17.7961 2.57655 17.0857L2.57227 16.928V8.67716ZM5.35798 4.28516H18.6437C19.3552 4.28511 20.0398 4.55735 20.557 5.04602C21.0742 5.53469 21.3848 6.20275 21.4251 6.91316L21.4294 7.07087V7.22858L12.0008 12.1314L2.57227 7.22858V7.07087C2.57222 6.35932 2.84445 5.67473 3.33313 5.15753C3.8218 4.64033 4.48986 4.32973 5.20027 4.28944L5.35798 4.28516Z" fill="white"/>
</svg>
