<svg width="122" height="186" viewBox="0 0 122 186" fill="none" xmlns="http://www.w3.org/2000/svg">
<g clip-path="url(#clip0_3510_2223)">
<path d="M12.6146 35.8501L12.2582 34.4246H9.05093L8.69456 35.8501H5.27344L8.76583 24.8027H12.472L15.9644 35.8501H12.6146ZM9.69239 31.9301H11.5455L10.6189 28.5089L9.69239 31.9301Z" fill="white"/>
<path d="M39.2721 35.8501V30.7897L35.7797 35.8501H33.2852V24.8027H36.4212V29.8631L39.9136 24.8027H42.4081V35.8501H39.2721Z" fill="white"/>
<path d="M69.2062 24.8027V27.8675H66.6403V35.8501H63.433V27.8675H60.8672V24.8027H69.2062Z" fill="white"/>
<path d="M37.8459 48.1791C35.4939 48.1791 33.2132 47.7515 31.0037 46.8249C26.5847 44.9718 23.0923 41.5507 21.3105 37.1317C19.5287 32.7128 19.4574 27.7949 21.3105 23.376C23.1636 18.957 26.5847 15.4646 31.0037 13.6828C35.4226 11.8297 40.3405 11.8297 44.7594 13.6828C49.1784 15.5359 52.6708 18.957 54.4526 23.376C58.2301 32.499 53.8824 43.0474 44.7594 46.8249C42.4787 47.7515 40.1267 48.1791 37.8459 48.1791ZM37.8459 13.8966C35.7077 13.8966 33.6408 14.3243 31.5739 15.1795C27.5113 16.8188 24.3753 19.9549 22.736 24.0174C21.0967 28.08 21.0967 32.499 22.736 36.4903C26.1571 44.8293 35.779 48.7493 44.0467 45.3282C52.3857 41.9071 56.3057 32.2852 52.8846 24.0174C51.2453 19.9549 48.1093 16.8188 44.0467 15.1795C42.0511 14.3243 39.9128 13.8966 37.8459 13.8966Z" fill="white"/>
<path d="M48.2982 2.80012L43.6055 14.125L45.1198 14.7525L49.8126 3.42764L48.2982 2.80012Z" fill="white"/>
<path d="M30.4955 45.8294L25.8027 57.1543L27.3171 57.7818L32.0099 46.4569L30.4955 45.8294Z" fill="white"/>
<path d="M45.1278 45.7711L43.6133 46.3984L48.3048 57.7245L49.8193 57.0972L45.1278 45.7711Z" fill="white"/>
<path d="M27.2997 2.72225L25.7852 3.34961L30.4767 14.6757L31.9912 14.0484L27.2997 2.72225Z" fill="white"/>
<path d="M11.403 19.3126L9.90625 18.6712C12.971 11.1875 18.8154 5.41432 26.2991 2.27829C40.4113 -3.56613 56.7328 2.06447 64.2166 15.4639L62.7911 16.2479C55.735 3.56121 40.2687 -1.78429 26.8693 3.77503C19.8132 6.69724 14.3252 12.2566 11.403 19.3126Z" fill="white"/>
<path d="M60.9375 16.3189L65.0001 18.956L65.2852 14.1094L60.9375 16.3189Z" fill="white"/>
<path d="M37.8458 60.5084C27.1548 60.5084 16.9627 54.8778 11.4746 45.0421L12.9001 44.2581C19.9561 56.8735 35.3512 62.219 48.7506 56.6597C55.8067 53.7375 61.2947 48.2494 64.2169 41.1934L65.7136 41.8348C62.6489 49.3185 56.8045 55.0917 49.3208 58.2277C45.6146 59.7244 41.6945 60.5084 37.8458 60.5084Z" fill="white"/>
<path d="M14.6817 44.1889L10.6191 41.4805L10.334 46.3271L14.6817 44.1889Z" fill="white"/>
</g>
<g clip-path="url(#clip1_3510_2223)">
<path d="M53.2407 153.344V173.443H49.1538V157.134H41.8388V173.443H37.752V153.344H53.2407Z" fill="white"/>
<path d="M61.1865 169.655H69.9229V173.445H57.0996V153.346H69.7748V157.136H61.1865V161.414H69.0345V165.147H61.1865V169.655Z" fill="white"/>
<path d="M89.004 173.445H84.2952L76.8916 164.027V173.445H72.8047V153.346H76.8916V162.218L83.9992 153.346H88.708L81.0376 163.108L89.004 173.445Z" fill="white"/>
<path d="M104.736 153.344V157.134H99.139V173.443H95.0521V157.134H89.4844V153.344H104.736Z" fill="white"/>
<path d="M114.747 153.344C116.741 153.344 118.419 153.995 119.782 155.296C121.144 156.598 121.825 158.196 121.825 160.091C121.825 161.987 121.144 163.585 119.782 164.887C118.419 166.188 116.741 166.839 114.747 166.839H111.104V173.443H107.018V153.344H114.747ZM114.747 163.135C115.616 163.135 116.336 162.848 116.909 162.274C117.481 161.68 117.768 160.953 117.768 160.091C117.768 159.211 117.481 158.483 116.909 157.909C116.336 157.335 115.616 157.048 114.747 157.048H111.104V163.135H114.747Z" fill="white"/>
<path d="M38.7954 149.581L38.7929 149.582L34.9514 147.032L35.3594 142.471C33.6958 141.786 31.9565 141.293 30.1765 141L28.0339 145.073L23.3927 145.224L20.9795 141.296C19.2742 141.688 17.6198 142.267 16.0481 143.023L16.7389 147.56L13.0536 150.317L8.74467 148.5C7.55671 149.83 6.53166 151.292 5.69028 152.855L8.97797 156.124L7.65901 160.481L3.09111 161.493C2.931 163.251 2.98205 165.021 3.24321 166.768L7.85975 167.524L9.42139 171.806L6.33493 175.254C6.81853 176.044 7.35002 176.805 7.92648 177.532C8.4598 178.194 9.02743 178.827 9.62716 179.432L13.821 177.385L17.6531 179.946L17.2242 184.513C18.8909 185.202 20.6333 185.7 22.4168 186L24.5762 181.932L29.2175 181.794L31.6204 185.736C33.3792 185.336 35.085 184.739 36.7038 183.957L35.9966 179.419L39.5629 176.726L37.0477 174.206C36.2883 174.931 35.4519 175.58 34.551 176.139C32.853 177.193 30.9592 177.909 28.9779 178.246C26.9966 178.584 24.9666 178.537 23.004 178.107C21.0405 177.681 19.1822 176.88 17.5353 175.752C15.8884 174.623 14.4853 173.188 13.4061 171.529C12.327 169.869 11.593 168.018 11.2461 166.081C10.8992 164.145 10.9463 162.16 11.3846 160.241C12.2747 156.368 14.7001 152.999 18.1285 150.873C21.5569 148.747 25.7081 148.038 29.6709 148.901L29.6811 148.887C31.6442 149.315 33.5018 150.116 35.1478 151.246C35.5922 151.551 36.0189 151.879 36.4261 152.227L38.7954 149.581Z" fill="white"/>
<path d="M35.9132 173.067C33.4646 175.36 30.1427 176.769 26.4842 176.769C18.9551 176.769 12.8516 170.802 12.8516 163.441C12.8516 156.08 18.9551 150.113 26.4842 150.113C29.8965 150.113 33.016 151.339 35.4071 153.364L32.3338 156.797C30.7502 155.436 28.6708 154.61 26.3935 154.61C21.4313 154.61 17.4088 158.53 17.4088 163.367C17.4088 168.204 21.4313 172.124 26.3935 172.124C28.7887 172.124 30.9651 171.211 32.5757 169.722L35.9132 173.067Z" fill="white"/>
</g>
<defs>
<clipPath id="clip0_3510_2223">
<rect width="77" height="61" fill="white"/>
</clipPath>
<clipPath id="clip1_3510_2223">
<rect width="121.5" height="45" fill="white" transform="translate(0 141)"/>
</clipPath>
</defs>
</svg>
