<svg width="38" height="38" viewBox="0 0 38 38" fill="white" xmlns="http://www.w3.org/2000/svg">
<path d="M19 0C8.55 0 0 8.55 0 19C0 29.45 8.55 38 19 38C29.45 38 38 29.45 38 19C38 8.55 29.45 0 19 0ZM28.31 11.59L25.08 27.17C24.89 28.31 24.13 28.5 23.37 27.93L18.43 24.13C17.29 25.27 16.15 26.22 15.96 26.6C15.58 26.79 15.39 27.17 15.01 27.17C14.44 27.17 14.44 26.79 14.25 26.41L12.54 20.71L7.41 19C6.27 18.62 6.27 17.86 7.6 17.29L26.98 9.88C27.74 9.69 28.69 10.07 28.31 11.59ZM23.75 13.3L12.92 20.14L14.63 25.84L15.01 22.04L24.32 13.68C24.89 13.11 24.51 13.11 23.75 13.3Z"/>
</svg>
