<svg width="122" height="45" viewBox="0 0 122 45" fill="#FFFFFF" xmlns="http://www.w3.org/2000/svg">
<path d="M53.2407 12.3438V32.4434H49.1538V16.1339H41.8388V32.4434H37.752V12.3438H53.2407Z"/>
<path d="M61.1865 28.6551H69.9229V32.4453H57.0996V12.3457H69.7748V16.1359H61.1865V20.4143H69.0345V24.1471H61.1865V28.6551Z"/>
<path d="M89.004 32.4453H84.2952L76.8916 23.0272V32.4453H72.8047V12.3457H76.8916V21.2183L83.9992 12.3457H88.708L81.0376 22.1084L89.004 32.4453Z"/>
<path d="M104.736 12.3438V16.1339H99.139V32.4434H95.0521V16.1339H89.4844V12.3438H104.736Z"/>
<path d="M114.747 12.3438C116.741 12.3438 118.419 12.9946 119.782 14.2963C121.144 15.598 121.825 17.1964 121.825 19.0915C121.825 20.9866 121.144 22.585 119.782 23.8867C118.419 25.1884 116.741 25.8392 114.747 25.8392H111.104V32.4434H107.018V12.3438H114.747ZM114.747 22.1352C115.616 22.1352 116.336 21.848 116.909 21.2737C117.481 20.6803 117.768 19.9529 117.768 19.0915C117.768 18.2109 117.481 17.4835 116.909 16.9092C116.336 16.335 115.616 16.0478 114.747 16.0478H111.104V22.1352H114.747Z"/>
<path d="M38.7954 8.58076L38.7929 8.58189L34.9514 6.03214L35.3594 1.47099C33.6958 0.786234 31.9565 0.292607 30.1765 0L28.0339 4.07278L23.3927 4.22416L20.9795 0.296209C19.2742 0.687656 17.6198 1.26705 16.0481 2.02325L16.7389 6.56002L13.0536 9.31721L8.74467 7.49985C7.55671 8.83044 6.53166 10.292 5.69028 11.855L8.97797 15.1245L7.65901 19.481L3.09111 20.4925C2.931 22.2508 2.98205 24.0214 3.24321 25.7681L7.85975 26.5242L9.42139 30.8057L6.33493 34.2536C6.81853 35.0435 7.35002 35.8045 7.92648 36.5323C8.4598 37.1936 9.02743 37.8274 9.62716 38.4321L13.821 36.3846L17.6531 38.9457L17.2242 43.5125C18.8909 44.2016 20.6333 44.7005 22.4168 45L24.5762 40.9317L29.2175 40.7943L31.6204 44.7356C33.3792 44.3359 35.085 43.7389 36.7038 42.9567L35.9966 38.4195L39.5629 35.7265L37.0477 33.2056C36.2883 33.9314 35.4519 34.5797 34.551 35.1387C32.853 36.1927 30.9592 36.9088 28.9779 37.2463C26.9966 37.5841 24.9666 37.5367 23.004 37.1071C21.0405 36.6806 19.1822 35.8805 17.5353 34.7517C15.8884 33.6229 14.4853 32.1878 13.4061 30.5285C12.327 28.8692 11.593 27.0182 11.2461 25.0814C10.8992 23.1445 10.9463 21.1598 11.3846 19.2408C12.2747 15.3682 14.7001 11.9991 18.1285 9.87304C21.5569 7.74693 25.7081 7.03758 29.6709 7.90066L29.6811 7.88695C31.6442 8.31452 33.5018 9.11619 35.1478 10.2461C35.5922 10.5512 36.0189 10.8786 36.4261 11.2267L38.7954 8.58076Z"/>
<path d="M35.9132 32.0666C33.4646 34.3597 30.1427 35.7686 26.4842 35.7686C18.9551 35.7686 12.8516 29.8016 12.8516 22.4409C12.8516 15.0803 18.9551 9.11328 26.4842 9.11328C29.8965 9.11328 33.016 10.3389 35.4071 12.3645L32.3338 15.7967C30.7502 14.4355 28.6708 13.6097 26.3935 13.6097C21.4313 13.6097 17.4088 17.5305 17.4088 22.367C17.4088 27.2035 21.4313 31.1243 26.3935 31.1243C28.7887 31.1243 30.9651 30.2107 32.5757 28.7216L35.9132 32.0666Z"/>
</svg>
