<svg width="65" height="61" viewBox="0 0 65 61" fill="#FFFFFF" xmlns="http://www.w3.org/2000/svg">
<path d="M8.04721 35.8941L7.69085 34.4686H4.48354L4.12718 35.8941H0.706055L4.19845 24.8467H7.90467L11.3971 35.8941H8.04721ZM5.125 31.974H6.97811L6.05156 28.5529L5.125 31.974Z"/>
<path d="M34.7038 35.8941V30.8336L31.2114 35.8941H28.7168V24.8467H31.8528V29.9071L35.3452 24.8467H37.8398V35.8941H34.7038Z"/>
<path d="M64.6388 24.8467V27.9114H62.0729V35.8941H58.8656V27.9114H56.2998V24.8467H64.6388Z"/>
<path d="M33.2776 48.226C30.9255 48.226 28.6448 47.7983 26.4353 46.8718C22.0164 45.0187 18.524 41.5976 16.7421 37.1786C14.9603 32.7597 14.889 27.8418 16.7421 23.4229C18.5952 19.0039 22.0164 15.5115 26.4353 13.7297C30.8543 11.8766 35.7721 11.8766 40.1911 13.7297C44.61 15.5828 48.1024 19.0039 49.8843 23.4229C53.6618 32.5458 49.3141 43.0943 40.1911 46.8718C37.9103 47.7983 35.5583 48.226 33.2776 48.226ZM33.2776 13.9435C31.1394 13.9435 29.0724 14.3711 27.0055 15.2264C22.9429 16.8657 19.8069 20.0017 18.1676 24.0643C16.5283 28.1269 16.5283 32.5458 18.1676 36.5372C21.5887 44.8761 31.2106 48.7962 39.4783 45.3751C47.8173 41.9539 51.7374 32.332 48.3162 24.0643C46.677 20.0017 43.5409 16.8657 39.4783 15.2264C37.4827 14.3711 35.3445 13.9435 33.2776 13.9435Z"/>
<path d="M43.7299 2.84797L39.0371 14.1729L40.5515 14.8004L45.2442 3.47549L43.7299 2.84797Z"/>
<path d="M25.9271 45.8773L21.2344 57.2021L22.7488 57.8297L27.4415 46.5048L25.9271 45.8773Z"/>
<path d="M40.5585 45.8189L39.0439 46.4463L43.7355 57.7724L45.25 57.145L40.5585 45.8189Z"/>
<path d="M22.7304 2.77011L21.2158 3.39746L25.9073 14.7236L27.4219 14.0962L22.7304 2.77011Z"/>
<path d="M6.83463 19.3595L5.33789 18.718C8.40265 11.2343 14.2471 5.46119 21.7308 2.32517C35.8429 -3.51925 52.1645 2.11135 59.6482 15.5107L58.2227 16.2947C51.1667 3.60809 35.7003 -1.73742 22.301 3.82191C15.2449 6.74411 9.75684 12.3034 6.83463 19.3595Z"/>
<path d="M56.3691 16.3657L60.4317 19.0028L60.7168 14.1562L56.3691 16.3657Z"/>
<path d="M33.2774 60.5553C22.5864 60.5553 12.3943 54.9247 6.90625 45.089L8.33172 44.305C15.3878 56.9204 30.7828 62.2659 44.1822 56.7066C51.2383 53.7843 56.7263 48.2963 59.6485 41.2402L61.1453 41.8817C58.0805 49.3654 52.2361 55.1385 44.7524 58.2746C41.0462 59.7713 37.1262 60.5553 33.2774 60.5553Z"/>
<path d="M10.1133 44.2357L6.05072 41.5273L5.76562 46.3739L10.1133 44.2357Z"/>
</svg>
