<svg width="40" height="40" viewBox="0 0 40 40" fill="none" xmlns="http://www.w3.org/2000/svg">
<path fill-rule="evenodd" clip-rule="evenodd" d="M19.9945 1C9.52012 1 1 9.52251 1 19.9998C1 24.155 2.34001 28.0085 4.61792 31.1363L2.25051 38.1955L9.55352 35.8615C12.5572 37.8497 16.1418 39 20.0055 39C30.4799 39 39 30.4772 39 20.0002C39 9.52285 30.4799 1.00031 20.0055 1.00031L19.9945 1ZM14.6902 10.6511C14.3218 9.76871 14.0425 9.73531 13.4844 9.71261C13.2944 9.70158 13.0826 9.69055 12.8478 9.69055C12.1217 9.69055 11.3625 9.90271 10.9046 10.3718C10.3464 10.9414 8.96165 12.2705 8.96165 14.996C8.96165 17.7216 10.9493 20.3576 11.2172 20.7265C11.4964 21.0947 15.0923 26.769 20.6755 29.0816C25.0416 30.8911 26.3372 30.7234 27.3309 30.5112C28.7825 30.1985 30.6028 29.1257 31.0607 27.8304C31.5186 26.5345 31.5186 25.4286 31.3844 25.1941C31.2504 24.9595 30.8817 24.8259 30.3236 24.5462C29.7654 24.2669 27.0517 22.9265 26.538 22.7478C26.0353 22.558 25.5553 22.6252 25.1759 23.1614C24.6398 23.9098 24.1151 24.6695 23.6906 25.1272C23.3556 25.4847 22.8082 25.5295 22.3506 25.3394C21.7363 25.0828 20.0169 24.4791 17.895 22.5914C16.2533 21.1284 15.1368 19.3079 14.8131 18.7606C14.4891 18.2023 14.7797 17.878 15.0362 17.5766C15.3154 17.2301 15.5833 16.9846 15.8625 16.6605C16.1418 16.3367 16.2981 16.169 16.4768 15.7892C16.6668 15.4207 16.5325 15.0408 16.3986 14.7615C16.2647 14.4822 15.1481 11.7566 14.6902 10.6511Z" fill="white"/>
</svg>
